<svg width="143" height="31" viewBox="0 0 143 31" fill="none" xmlns="http://www.w3.org/2000/svg">
<path d="M43.641 6.97001C44.0807 6.87348 44.5205 6.7984 44.9602 6.74477C45.3999 6.68042 45.9416 6.64824 46.5851 6.64824C47.4324 6.64824 48.1617 6.78767 48.7731 7.06654C49.3844 7.33467 49.8832 7.69934 50.2693 8.16053C50.6554 8.62173 50.9396 9.15264 51.122 9.75326C51.3043 10.3432 51.3955 10.9652 51.3955 11.6195C51.3955 12.5848 51.2453 13.4804 50.945 14.3062C50.6554 15.1214 50.2371 15.8239 49.6901 16.4138C49.1431 17.0037 48.4781 17.4649 47.6952 17.7974C46.9122 18.1298 46.0327 18.2961 45.0567 18.2961C44.3703 18.2961 43.7589 18.2478 43.2227 18.1513C42.6864 18.0655 42.1984 17.9421 41.7586 17.7813L43.641 6.97001ZM46.4564 7.9353C46.1775 7.9353 45.9148 7.95139 45.6681 7.98356C45.4214 8.00501 45.1908 8.04255 44.9763 8.09618L43.464 16.7677C43.7107 16.8321 43.9735 16.8857 44.2523 16.9286C44.5312 16.9608 44.8315 16.9769 45.1533 16.9769C45.8504 16.9769 46.4832 16.8535 47.0517 16.6068C47.6308 16.3494 48.1242 15.9901 48.5318 15.5289C48.9393 15.0677 49.2557 14.5154 49.481 13.8718C49.7062 13.2283 49.8188 12.5204 49.8188 11.7482C49.8188 11.2441 49.7491 10.7615 49.6097 10.3003C49.481 9.83907 49.2772 9.43686 48.9983 9.09365C48.7302 8.73971 48.3816 8.46084 47.9526 8.25706C47.5343 8.04255 47.0356 7.9353 46.4564 7.9353ZM53.794 18.103H52.3461L53.8101 9.73717H55.258L53.794 18.103ZM54.8719 8.30533C54.5716 8.30533 54.341 8.21952 54.1801 8.04792C54.0299 7.86558 53.9549 7.65644 53.9549 7.42048C53.9549 7.07726 54.0621 6.80376 54.2766 6.59998C54.4911 6.38547 54.7593 6.27822 55.081 6.27822C55.3814 6.27822 55.6066 6.36938 55.7567 6.55171C55.9176 6.72332 55.9981 6.92711 55.9981 7.16307C55.9981 7.50628 55.8908 7.78514 55.6763 7.99965C55.4618 8.20343 55.1937 8.30533 54.8719 8.30533ZM61.7557 9.54412C62.3993 9.54412 62.957 9.60847 63.4289 9.73717C63.9116 9.86588 64.3084 9.99459 64.6194 10.1233L63.2198 18.1996C63.0911 18.9396 62.8926 19.5402 62.6245 20.0014C62.3564 20.4734 62.0507 20.8434 61.7075 21.1115C61.3643 21.3904 60.9996 21.5781 60.6135 21.6746C60.2274 21.7819 59.8466 21.8355 59.4712 21.8355C58.7419 21.8355 58.1198 21.6853 57.605 21.385C57.1009 21.0954 56.688 20.7469 56.3662 20.3393L57.4924 19.5027C58.0179 20.2213 58.7097 20.5806 59.5678 20.5806C60.104 20.5806 60.5759 20.3822 60.9835 19.9853C61.3911 19.5885 61.6807 18.9128 61.8523 17.9582L62.1258 16.3816C61.8147 16.8642 61.4393 17.2718 60.9996 17.6043C60.5599 17.9368 60.0611 18.103 59.5034 18.103C59.1173 18.103 58.7419 18.0333 58.3772 17.8939C58.0126 17.7437 57.6854 17.5292 57.3959 17.2504C57.1063 16.9715 56.8757 16.6229 56.7041 16.2046C56.5325 15.7863 56.4466 15.309 56.4466 14.7728C56.4466 14.0005 56.5807 13.2927 56.8489 12.6491C57.117 12.0056 57.487 11.4532 57.9589 10.9921C58.4309 10.5309 58.9886 10.1769 59.6321 9.93023C60.2864 9.67282 60.9942 9.54412 61.7557 9.54412ZM57.9268 14.6119C57.9268 14.9766 57.9804 15.2983 58.0876 15.5772C58.2056 15.8453 58.3558 16.0759 58.5381 16.269C58.7204 16.4513 58.9296 16.5907 59.1656 16.6873C59.4015 16.7731 59.6428 16.816 59.8895 16.816C60.1898 16.816 60.4794 16.7355 60.7583 16.5747C61.0479 16.403 61.3106 16.1671 61.5466 15.8668C61.7933 15.5557 62.0078 15.1857 62.1901 14.7567C62.3725 14.3277 62.5119 13.845 62.6084 13.3087L63.0267 10.976C62.8229 10.9116 62.6084 10.8633 62.3832 10.8312C62.158 10.7883 61.8952 10.7668 61.5949 10.7668C61.0586 10.7668 60.5652 10.8687 60.1148 11.0725C59.6643 11.2656 59.2782 11.5337 58.9564 11.8769C58.6346 12.2201 58.3826 12.6277 58.2003 13.0996C58.0179 13.5608 57.9268 14.0649 57.9268 14.6119ZM67.1799 18.103H65.7319L67.1959 9.73717H68.6439L67.1799 18.103ZM68.2578 8.30533C67.9574 8.30533 67.7269 8.21952 67.566 8.04792C67.4158 7.86558 67.3407 7.65644 67.3407 7.42048C67.3407 7.07726 67.448 6.80376 67.6625 6.59998C67.877 6.38547 68.1451 6.27822 68.4669 6.27822C68.7672 6.27822 68.9925 6.36938 69.1426 6.55171C69.3035 6.72332 69.3839 6.92711 69.3839 7.16307C69.3839 7.50628 69.2767 7.78514 69.0622 7.99965C68.8477 8.20343 68.5795 8.30533 68.2578 8.30533ZM70.1221 10.0428H71.6022L72.3745 7.40439H73.4845L73.018 10.0428H75.3347L75.1255 11.2977H72.7927L72.117 15.2072C72.0741 15.4217 72.0527 15.6254 72.0527 15.8185C72.0527 16.1939 72.1599 16.4888 72.3745 16.7034C72.5997 16.9071 72.9 17.009 73.2754 17.009C73.5864 17.009 73.8438 16.9661 74.0476 16.8803C74.2621 16.7838 74.4606 16.6873 74.6429 16.5907L74.8199 17.8456C74.6161 17.9636 74.3587 18.0655 74.0476 18.1513C73.7473 18.2478 73.4095 18.2961 73.0341 18.2961C72.7338 18.2961 72.4388 18.2478 72.1492 18.1513C71.8596 18.0655 71.6022 17.9314 71.377 17.7491C71.1517 17.556 70.9694 17.3093 70.83 17.009C70.6906 16.7087 70.6208 16.3494 70.6208 15.9311C70.6208 15.8131 70.6262 15.6952 70.6369 15.5772C70.6477 15.4485 70.6637 15.3037 70.6852 15.1428L71.3448 11.2977H69.913L70.1221 10.0428ZM75.9599 14.805C75.9599 14.0327 76.0886 13.3248 76.346 12.6813C76.6141 12.0271 76.9841 11.4693 77.4561 11.0081C77.928 10.5469 78.4911 10.1876 79.1453 9.93023C79.7996 9.67282 80.5128 9.54412 81.285 9.54412C81.9178 9.54412 82.4702 9.60847 82.9421 9.73717C83.4248 9.86588 83.8216 9.99459 84.1326 10.1233L83.1191 15.8346C83.1084 15.8882 83.0976 15.9526 83.0869 16.0277C83.0869 16.092 83.0869 16.1617 83.0869 16.2368C83.0869 16.5371 83.1727 16.7516 83.3443 16.8803C83.5159 16.9983 83.7412 17.0573 84.02 17.0573L83.5213 18.1835C82.9421 18.1835 82.497 18.044 82.186 17.7652C81.8857 17.4863 81.7355 17.0412 81.7355 16.4299C81.4352 16.9447 81.0544 17.3844 80.5932 17.7491C80.1428 18.1138 79.6119 18.2961 79.0005 18.2961C78.6037 18.2961 78.2229 18.2156 77.8583 18.0548C77.4936 17.8939 77.1665 17.6633 76.8769 17.363C76.598 17.0627 76.3728 16.698 76.2012 16.269C76.0403 15.8292 75.9599 15.3412 75.9599 14.805ZM82.5399 10.976C82.3361 10.9116 82.1216 10.8633 81.8964 10.8312C81.6819 10.7883 81.4191 10.7668 81.1081 10.7668C80.5503 10.7668 80.0462 10.8633 79.5958 11.0564C79.1453 11.2495 78.7592 11.5176 78.4374 11.8608C78.1157 12.204 77.869 12.6116 77.6974 13.0835C77.5258 13.5554 77.44 14.0703 77.44 14.628C77.44 15.0141 77.4936 15.3573 77.6008 15.6576C77.7188 15.9472 77.869 16.1939 78.0513 16.3977C78.2336 16.6015 78.4374 16.757 78.6627 16.8642C78.8986 16.9608 79.1399 17.009 79.3866 17.009C79.7084 17.009 80.0141 16.9232 80.3037 16.7516C80.604 16.58 80.8721 16.3387 81.1081 16.0277C81.344 15.7059 81.5478 15.3305 81.7194 14.9015C81.891 14.4617 82.0197 13.9845 82.1055 13.4696L82.5399 10.976ZM87.2344 15.2072C87.2129 15.3573 87.1969 15.486 87.1861 15.5933C87.1754 15.7005 87.17 15.7971 87.17 15.8829C87.17 16.2582 87.2773 16.5478 87.4918 16.7516C87.7063 16.9447 88.0013 17.0412 88.3767 17.0412C88.559 17.0412 88.7413 17.0198 88.9237 16.9769C89.106 16.934 89.2722 16.875 89.4224 16.7999L89.5672 17.9743C89.3741 18.0709 89.1489 18.1459 88.8915 18.1996C88.6341 18.2639 88.3552 18.2961 88.0549 18.2961C87.7331 18.2961 87.4275 18.2478 87.1379 18.1513C86.859 18.0655 86.6123 17.9314 86.3978 17.7491C86.194 17.5668 86.0278 17.3362 85.8991 17.0573C85.7811 16.7677 85.7221 16.4352 85.7221 16.0598C85.7221 15.9097 85.7275 15.7756 85.7382 15.6576C85.7489 15.5289 85.765 15.3895 85.7865 15.2393L87.3631 6.19778H88.811L87.2344 15.2072ZM96.0657 6.9861L97.5941 6.66433L99.5407 16.4299L104.657 6.7126L106.008 7.45265L100.168 18.103H98.4145L96.0657 6.9861ZM105.104 14.805C105.104 14.0327 105.233 13.3248 105.49 12.6813C105.758 12.0271 106.128 11.4693 106.6 11.0081C107.072 10.5469 107.635 10.1876 108.289 9.93023C108.944 9.67282 109.657 9.54412 110.429 9.54412C111.062 9.54412 111.614 9.60847 112.086 9.73717C112.569 9.86588 112.966 9.99459 113.277 10.1233L112.263 15.8346C112.252 15.8882 112.242 15.9526 112.231 16.0277C112.231 16.092 112.231 16.1617 112.231 16.2368C112.231 16.5371 112.317 16.7516 112.488 16.8803C112.66 16.9983 112.885 17.0573 113.164 17.0573L112.665 18.1835C112.086 18.1835 111.641 18.044 111.33 17.7652C111.03 17.4863 110.88 17.0412 110.88 16.4299C110.579 16.9447 110.199 17.3844 109.737 17.7491C109.287 18.1138 108.756 18.2961 108.145 18.2961C107.748 18.2961 107.367 18.2156 107.002 18.0548C106.638 17.8939 106.311 17.6633 106.021 17.363C105.742 17.0627 105.517 16.698 105.345 16.269C105.184 15.8292 105.104 15.3412 105.104 14.805ZM111.684 10.976C111.48 10.9116 111.266 10.8633 111.04 10.8312C110.826 10.7883 110.563 10.7668 110.252 10.7668C109.694 10.7668 109.19 10.8633 108.74 11.0564C108.289 11.2495 107.903 11.5176 107.582 11.8608C107.26 12.204 107.013 12.6116 106.841 13.0835C106.67 13.5554 106.584 14.0703 106.584 14.628C106.584 15.0141 106.638 15.3573 106.745 15.6576C106.863 15.9472 107.013 16.1939 107.195 16.3977C107.378 16.6015 107.582 16.757 107.807 16.8642C108.043 16.9608 108.284 17.009 108.531 17.009C108.853 17.009 109.158 16.9232 109.448 16.7516C109.748 16.58 110.016 16.3387 110.252 16.0277C110.488 15.7059 110.692 15.3305 110.864 14.9015C111.035 14.4617 111.164 13.9845 111.25 13.4696L111.684 10.976ZM116.379 15.2072C116.357 15.3573 116.341 15.486 116.33 15.5933C116.32 15.7005 116.314 15.7971 116.314 15.8829C116.314 16.2582 116.421 16.5478 116.636 16.7516C116.85 16.9447 117.145 17.0412 117.521 17.0412C117.703 17.0412 117.885 17.0198 118.068 16.9769C118.25 16.934 118.416 16.875 118.566 16.7999L118.711 17.9743C118.518 18.0709 118.293 18.1459 118.036 18.1996C117.778 18.2639 117.499 18.2961 117.199 18.2961C116.877 18.2961 116.572 18.2478 116.282 18.1513C116.003 18.0655 115.756 17.9314 115.542 17.7491C115.338 17.5668 115.172 17.3362 115.043 17.0573C114.925 16.7677 114.866 16.4352 114.866 16.0598C114.866 15.9097 114.872 15.7756 114.882 15.6576C114.893 15.5289 114.909 15.3895 114.931 15.2393L116.507 6.19778H117.955L116.379 15.2072ZM122.273 18.2961C121.951 18.2961 121.645 18.2425 121.356 18.1352C121.077 18.0279 120.825 17.8724 120.599 17.6686C120.385 17.4649 120.213 17.2182 120.085 16.9286C119.967 16.639 119.908 16.3119 119.908 15.9472C119.908 15.8078 119.913 15.6683 119.924 15.5289C119.934 15.3788 119.951 15.2232 119.972 15.0624L120.889 9.73717H122.337L121.404 15.0302C121.382 15.1374 121.366 15.234 121.356 15.3198C121.356 15.3949 121.356 15.4807 121.356 15.5772C121.356 16.0598 121.495 16.4191 121.774 16.6551C122.053 16.8911 122.38 17.009 122.755 17.009C123.056 17.009 123.356 16.9393 123.656 16.7999C123.967 16.6497 124.251 16.4406 124.509 16.1724C124.766 15.9043 124.991 15.5772 125.185 15.1911C125.388 14.7942 125.533 14.3438 125.619 13.8397L126.343 9.73717H127.791L126.729 15.8346C126.718 15.8882 126.708 15.9526 126.697 16.0277C126.697 16.092 126.697 16.1617 126.697 16.2368C126.697 16.5371 126.783 16.7516 126.954 16.8803C127.126 16.9983 127.351 17.0573 127.63 17.0573L127.131 18.1835C126.552 18.1835 126.107 18.044 125.796 17.7652C125.496 17.4863 125.345 17.0412 125.345 16.4299V16.2851C124.562 17.6257 123.538 18.2961 122.273 18.2961ZM132.589 18.2961C132.052 18.2961 131.564 18.2103 131.125 18.0387C130.685 17.8563 130.304 17.6043 129.982 17.2825C129.671 16.95 129.425 16.5478 129.242 16.0759C129.071 15.604 128.985 15.0731 128.985 14.4832C128.985 13.8182 129.092 13.1854 129.307 12.5848C129.521 11.9842 129.821 11.4586 130.208 11.0081C130.604 10.5577 131.082 10.2037 131.639 9.94632C132.197 9.67818 132.819 9.54412 133.506 9.54412C133.967 9.54412 134.38 9.61383 134.744 9.75326C135.109 9.89269 135.415 10.075 135.661 10.3003C135.919 10.5255 136.112 10.7883 136.241 11.0886C136.38 11.3889 136.45 11.6999 136.45 12.0217C136.45 12.6223 136.305 13.1103 136.015 13.4857C135.737 13.8611 135.383 14.1614 134.954 14.3867C134.525 14.6012 134.053 14.7513 133.538 14.8371C133.023 14.9122 132.535 14.9497 132.074 14.9497C131.784 14.9497 131.495 14.939 131.205 14.9176C130.926 14.8854 130.679 14.8532 130.465 14.821C130.551 15.5289 130.797 16.0706 131.205 16.4459C131.623 16.8213 132.165 17.009 132.83 17.009C133.366 17.009 133.843 16.9393 134.262 16.7999C134.68 16.6605 135.034 16.521 135.324 16.3816L135.452 17.6686C135.131 17.8188 134.723 17.9636 134.23 18.103C133.747 18.2317 133.2 18.2961 132.589 18.2961ZM133.393 10.7668C133.018 10.7668 132.664 10.8419 132.331 10.9921C132.009 11.1315 131.72 11.3299 131.462 11.5873C131.216 11.8447 131.007 12.1504 130.835 12.5043C130.674 12.8583 130.561 13.2444 130.497 13.6627C130.744 13.7163 130.991 13.7539 131.237 13.7753C131.484 13.7968 131.763 13.8075 132.074 13.8075C132.985 13.8075 133.699 13.6841 134.214 13.4375C134.739 13.18 135.002 12.7457 135.002 12.1343C135.002 11.7589 134.852 11.4372 134.551 11.169C134.262 10.9009 133.876 10.7668 133.393 10.7668Z" fill="white"/>
<path opacity="0.4" d="M8.79468 28.3981L21.8183 21.7898L26.0287 24.0504L13.0273 30.5415L8.79468 28.3981Z" fill="url(#paint0_linear_342:4798)"/>
<path opacity="0.4" d="M0.0211182 24.03L13.0147 17.4314L26.0286 24.0504L13.0147 30.5472L0.0211182 24.03Z" fill="url(#paint1_linear_342:4798)"/>
<path opacity="0.6" d="M26.0287 24.0505V20.8123L13.0351 27.2072L13.0148 30.5473L26.0287 24.0505Z" fill="url(#paint2_linear_342:4798)"/>
<path opacity="0.6" d="M13.0149 14.458L0.0213623 20.853V24.0097L13.0149 17.4315V14.458Z" fill="url(#paint3_linear_342:4798)"/>
<path opacity="0.6" d="M13.0148 14.458L26.0287 20.8122V24.0504L13.0148 17.4315V14.458Z" fill="url(#paint4_linear_342:4798)"/>
<path d="M0.0211182 24.03L13.0147 17.4314L15.6827 18.7959L2.66871 25.3538L0.0211182 24.03Z" fill="url(#paint5_linear_342:4798)"/>
<path d="M1.87451 24.9467L14.8477 18.3684L17.5157 19.7329L4.52211 26.2705L1.87451 24.9467Z" fill="url(#paint6_linear_342:4798)"/>
<path opacity="0.6" d="M0.0211182 24.0301V20.853L13.0351 27.2073V30.5473L0.0211182 24.0301Z" fill="#33A9FE"/>
<path opacity="0.4" d="M8.79443 24.0582L21.818 17.45L26.0285 19.7106L13.0271 26.2017L8.79443 24.0582Z" fill="url(#paint7_linear_342:4798)"/>
<path opacity="0.4" d="M0.020874 19.6902L13.0145 13.0916L26.0284 19.7105L13.0145 26.2073L0.020874 19.6902Z" fill="url(#paint8_linear_342:4798)"/>
<path opacity="0.6" d="M26.0285 19.7106V16.4724L13.0349 22.8674L13.0145 26.2074L26.0285 19.7106Z" fill="url(#paint9_linear_342:4798)"/>
<path opacity="0.6" d="M13.0145 10.1182L0.020874 16.5131V19.6699L13.0145 13.0916V10.1182Z" fill="url(#paint10_linear_342:4798)"/>
<path opacity="0.6" d="M13.0145 10.1182L26.0285 16.4724V19.7106L13.0145 13.0916V10.1182Z" fill="url(#paint11_linear_342:4798)"/>
<path d="M0.020874 19.6902L13.0145 13.0916L15.6824 14.4561L2.66847 21.014L0.020874 19.6902Z" fill="url(#paint12_linear_342:4798)"/>
<path d="M1.87427 20.6068L14.8475 14.0286L17.5154 15.3931L4.52186 21.9306L1.87427 20.6068Z" fill="url(#paint13_linear_342:4798)"/>
<path opacity="0.6" d="M0.020874 19.6903V16.5132L13.0348 22.8674V26.2075L0.020874 19.6903Z" fill="#FAC762"/>
<path opacity="0.4" d="M8.79468 18.6864L21.8183 12.0781L26.0287 14.3388L13.0273 20.8299L8.79468 18.6864Z" fill="url(#paint14_linear_342:4798)"/>
<path opacity="0.4" d="M0.0211182 14.3183L13.0147 7.71973L26.0286 14.3387L13.0147 20.8355L0.0211182 14.3183Z" fill="url(#paint15_linear_342:4798)"/>
<path opacity="0.6" d="M26.0287 14.3388V11.1006L13.0351 17.4955L13.0148 20.8356L26.0287 14.3388Z" fill="url(#paint16_linear_342:4798)"/>
<path opacity="0.6" d="M13.0147 4.74634L0.0211182 11.1413V14.298L13.0147 7.71979V4.74634Z" fill="url(#paint17_linear_342:4798)"/>
<path opacity="0.6" d="M13.0148 4.74634L26.0287 11.1006V14.3388L13.0148 7.71979V4.74634Z" fill="url(#paint18_linear_342:4798)"/>
<path d="M0.0211182 14.3183L13.0147 7.71973L15.6827 9.08426L2.66871 15.6421L0.0211182 14.3183Z" fill="url(#paint19_linear_342:4798)"/>
<path d="M1.87451 15.235L14.8477 8.65674L17.5157 10.0213L4.52211 16.5588L1.87451 15.235Z" fill="url(#paint20_linear_342:4798)"/>
<path opacity="0.6" d="M0.0211182 14.3185V11.1414L13.0351 17.4956V20.8356L0.0211182 14.3185Z" fill="#02E241"/>
<path opacity="0.4" d="M8.79468 14.36L21.8183 7.75171L26.0287 10.0123L13.0273 16.5034L8.79468 14.36Z" fill="url(#paint21_linear_342:4798)"/>
<path opacity="0.4" d="M0.0211182 9.99193L13.0147 3.39331L26.0286 10.0123L13.0147 16.5091L0.0211182 9.99193Z" fill="url(#paint22_linear_342:4798)"/>
<path opacity="0.6" d="M26.0287 10.0124V6.77417L13.0351 13.1691L13.0148 16.5092L26.0287 10.0124Z" fill="url(#paint23_linear_342:4798)"/>
<path opacity="0.6" fill-rule="evenodd" clip-rule="evenodd" d="M13.0138 13.1262L26.0074 6.7312L26.05 6.81776L13.0564 13.2127L13.0138 13.1262Z" fill="white" fill-opacity="0.52"/>
<path opacity="0.6" d="M13.0147 0.419922L0.0211182 6.81488V9.97163L13.0147 3.39338V0.419922Z" fill="url(#paint24_linear_342:4798)"/>
<path opacity="0.6" d="M13.0148 0.419922L26.0287 6.77415V10.0124L13.0148 3.39337V0.419922Z" fill="url(#paint25_linear_342:4798)"/>
<path d="M0.0211182 9.99193L13.0147 3.39331L15.6827 4.75784L2.66871 11.3157L0.0211182 9.99193Z" fill="url(#paint26_linear_342:4798)"/>
<path d="M1.87451 10.9086L14.8477 4.33032L17.5157 5.69485L4.52211 12.2324L1.87451 10.9086Z" fill="url(#paint27_linear_342:4798)"/>
<path opacity="0.6" d="M0.0211182 9.99206V6.81494L13.0351 13.1692V16.5092L0.0211182 9.99206Z" fill="#FF3EBD"/>
<path opacity="0.6" fill-rule="evenodd" clip-rule="evenodd" d="M13.0139 13.2126L0 6.85842L0.0423273 6.77173L13.0563 13.126L13.0139 13.2126Z" fill="white" fill-opacity="0.56"/>
<defs>
<linearGradient id="paint0_linear_342:4798" x1="11.53" y1="30.494" x2="25.0611" y2="23.1803" gradientUnits="userSpaceOnUse">
<stop stop-color="#33FEFE"/>
<stop offset="1" stop-color="#33A9FE" stop-opacity="0"/>
</linearGradient>
<linearGradient id="paint1_linear_342:4798" x1="7.44403" y1="27.2886" x2="18.5382" y2="20.5356" gradientUnits="userSpaceOnUse">
<stop stop-color="#33A9FE"/>
<stop offset="1" stop-color="#33A9FE" stop-opacity="0"/>
</linearGradient>
<linearGradient id="paint2_linear_342:4798" x1="13.0148" y1="29.8934" x2="23.7531" y2="24.491" gradientUnits="userSpaceOnUse">
<stop stop-color="#33A9FE"/>
<stop offset="1" stop-color="#33A9FE" stop-opacity="0.43"/>
</linearGradient>
<linearGradient id="paint3_linear_342:4798" x1="2.04726" y1="21.6933" x2="13.9132" y2="15.4227" gradientUnits="userSpaceOnUse">
<stop stop-color="#33A9FE"/>
<stop offset="1" stop-color="#33A9FE" stop-opacity="0"/>
</linearGradient>
<linearGradient id="paint4_linear_342:4798" x1="19.5217" y1="14.458" x2="14.106" y2="18.5098" gradientUnits="userSpaceOnUse">
<stop stop-color="#33A9FE"/>
<stop offset="1" stop-color="#33A9FE" stop-opacity="0"/>
</linearGradient>
<linearGradient id="paint5_linear_342:4798" x1="1.17341" y1="24.1051" x2="13.4252" y2="17.4485" gradientUnits="userSpaceOnUse">
<stop stop-color="#33FEFE"/>
<stop offset="1" stop-color="#33A9FE" stop-opacity="0"/>
</linearGradient>
<linearGradient id="paint6_linear_342:4798" x1="4.35704" y1="26.2276" x2="16.6089" y2="19.5711" gradientUnits="userSpaceOnUse">
<stop stop-color="#33FEFE"/>
<stop offset="1" stop-color="#33A9FE" stop-opacity="0"/>
</linearGradient>
<linearGradient id="paint7_linear_342:4798" x1="11.5298" y1="26.1542" x2="25.0609" y2="18.8404" gradientUnits="userSpaceOnUse">
<stop stop-color="#FFEB33"/>
<stop offset="1" stop-color="#FAC762" stop-opacity="0"/>
</linearGradient>
<linearGradient id="paint8_linear_342:4798" x1="7.44379" y1="22.9488" x2="18.538" y2="16.1958" gradientUnits="userSpaceOnUse">
<stop stop-color="#FAC762"/>
<stop offset="1" stop-color="#FAC762" stop-opacity="0"/>
</linearGradient>
<linearGradient id="paint9_linear_342:4798" x1="13.0145" y1="25.5536" x2="23.7528" y2="20.1512" gradientUnits="userSpaceOnUse">
<stop stop-color="#FAC762"/>
<stop offset="1" stop-color="#FAC762" stop-opacity="0.43"/>
</linearGradient>
<linearGradient id="paint10_linear_342:4798" x1="2.04677" y1="17.3535" x2="13.9127" y2="11.0829" gradientUnits="userSpaceOnUse">
<stop stop-color="#FAC762"/>
<stop offset="1" stop-color="#FAC762" stop-opacity="0"/>
</linearGradient>
<linearGradient id="paint11_linear_342:4798" x1="19.5215" y1="10.1182" x2="14.1057" y2="14.1699" gradientUnits="userSpaceOnUse">
<stop stop-color="#FAC762"/>
<stop offset="1" stop-color="#FAC762" stop-opacity="0"/>
</linearGradient>
<linearGradient id="paint12_linear_342:4798" x1="1.17317" y1="19.7652" x2="13.425" y2="13.1087" gradientUnits="userSpaceOnUse">
<stop stop-color="#FFEB33"/>
<stop offset="1" stop-color="#FAC762" stop-opacity="0"/>
</linearGradient>
<linearGradient id="paint13_linear_342:4798" x1="4.35679" y1="21.8877" x2="16.6086" y2="15.2312" gradientUnits="userSpaceOnUse">
<stop stop-color="#FFEB33"/>
<stop offset="1" stop-color="#FAC762" stop-opacity="0"/>
</linearGradient>
<linearGradient id="paint14_linear_342:4798" x1="11.53" y1="20.7824" x2="25.0611" y2="13.4686" gradientUnits="userSpaceOnUse">
<stop stop-color="#02E241"/>
<stop offset="1" stop-color="#02E241" stop-opacity="0"/>
</linearGradient>
<linearGradient id="paint15_linear_342:4798" x1="7.44403" y1="17.5769" x2="18.5382" y2="10.824" gradientUnits="userSpaceOnUse">
<stop stop-color="#02E241"/>
<stop offset="1" stop-color="#02E241" stop-opacity="0"/>
</linearGradient>
<linearGradient id="paint16_linear_342:4798" x1="13.0148" y1="20.1817" x2="23.7531" y2="14.7794" gradientUnits="userSpaceOnUse">
<stop stop-color="#02E241"/>
<stop offset="1" stop-color="#02E241" stop-opacity="0.43"/>
</linearGradient>
<linearGradient id="paint17_linear_342:4798" x1="2.04701" y1="11.9817" x2="13.913" y2="5.71105" gradientUnits="userSpaceOnUse">
<stop stop-color="#02E241"/>
<stop offset="1" stop-color="#02E241" stop-opacity="0"/>
</linearGradient>
<linearGradient id="paint18_linear_342:4798" x1="19.5217" y1="4.74634" x2="14.106" y2="8.79812" gradientUnits="userSpaceOnUse">
<stop stop-color="#02E241"/>
<stop offset="1" stop-color="#02E241" stop-opacity="0"/>
</linearGradient>
<linearGradient id="paint19_linear_342:4798" x1="1.17341" y1="14.3934" x2="13.4252" y2="7.73688" gradientUnits="userSpaceOnUse">
<stop stop-color="#02E241"/>
<stop offset="1" stop-color="#02E241" stop-opacity="0"/>
</linearGradient>
<linearGradient id="paint20_linear_342:4798" x1="4.35704" y1="16.5159" x2="16.6089" y2="9.85941" gradientUnits="userSpaceOnUse">
<stop stop-color="#02E241"/>
<stop offset="1" stop-color="#02E241" stop-opacity="0"/>
</linearGradient>
<linearGradient id="paint21_linear_342:4798" x1="11.53" y1="16.456" x2="25.0611" y2="9.14218" gradientUnits="userSpaceOnUse">
<stop stop-color="#FF3EBD"/>
<stop offset="1" stop-color="#FF5F3E" stop-opacity="0"/>
</linearGradient>
<linearGradient id="paint22_linear_342:4798" x1="7.44403" y1="13.2505" x2="18.5382" y2="6.49754" gradientUnits="userSpaceOnUse">
<stop stop-color="#FF5F3E"/>
<stop offset="1" stop-color="#FF5F3E" stop-opacity="0"/>
</linearGradient>
<linearGradient id="paint23_linear_342:4798" x1="13.0148" y1="15.8553" x2="23.7531" y2="10.4529" gradientUnits="userSpaceOnUse">
<stop stop-color="#FF5F3E"/>
<stop offset="1" stop-color="#FF5F3E" stop-opacity="0.43"/>
</linearGradient>
<linearGradient id="paint24_linear_342:4798" x1="2.04701" y1="7.65525" x2="13.913" y2="1.38463" gradientUnits="userSpaceOnUse">
<stop stop-color="#FF5F3E"/>
<stop offset="1" stop-color="#FF5F3E" stop-opacity="0"/>
</linearGradient>
<linearGradient id="paint25_linear_342:4798" x1="19.5217" y1="0.419922" x2="14.106" y2="4.47171" gradientUnits="userSpaceOnUse">
<stop stop-color="#FF5F3E"/>
<stop offset="1" stop-color="#FF5F3E" stop-opacity="0"/>
</linearGradient>
<linearGradient id="paint26_linear_342:4798" x1="1.17341" y1="10.067" x2="13.4252" y2="3.41046" gradientUnits="userSpaceOnUse">
<stop stop-color="#FF3EBD"/>
<stop offset="1" stop-color="#FF5F3E" stop-opacity="0"/>
</linearGradient>
<linearGradient id="paint27_linear_342:4798" x1="4.35704" y1="12.1895" x2="16.6089" y2="5.53299" gradientUnits="userSpaceOnUse">
<stop stop-color="#FF3EBD"/>
<stop offset="1" stop-color="#FF5F3E" stop-opacity="0"/>
</linearGradient>
</defs>
</svg>
