<svg width="26" height="26" viewBox="0 0 26 26" fill="none" xmlns="http://www.w3.org/2000/svg">
<path fill-rule="evenodd" clip-rule="evenodd" d="M12.5919 25.1359C19.4961 25.1359 25.0931 19.5366 25.0931 12.6295C25.0931 5.72237 19.4961 0.123047 12.5919 0.123047C5.68776 0.123047 0.0908203 5.72237 0.0908203 12.6295C0.0908203 19.5366 5.68776 25.1359 12.5919 25.1359ZM12.0135 13.8594H16.1792C16.7101 13.8594 17.1405 14.29 17.1405 14.8212C17.1405 15.3525 16.7101 15.783 16.1792 15.783H11.0521C10.5212 15.783 10.0908 15.3525 10.0908 14.8212V8.08848C10.0908 7.55724 10.5212 7.12667 11.0521 7.12667C11.5831 7.12667 12.0135 7.55724 12.0135 8.08848V13.8594Z" fill="white"/>
</svg>
