<svg width="19" height="28" viewBox="0 0 19 28" fill="none" xmlns="http://www.w3.org/2000/svg">
<path d="M18.0069 10.5599C17.9623 10.4683 17.8948 10.3915 17.8119 10.338C17.729 10.2844 17.6338 10.256 17.5368 10.256H9.72735L11.7009 0.809408C11.7278 0.682631 11.7125 0.549876 11.6577 0.433689C11.603 0.317502 11.5121 0.225045 11.4004 0.17202C11.2888 0.118995 11.1634 0.10867 11.0454 0.142799C10.9275 0.176928 10.8242 0.253406 10.7533 0.359247L0.165644 16.1149C0.108093 16.199 0.073615 16.2985 0.0660409 16.4022C0.0584667 16.5059 0.078093 16.6099 0.122739 16.7024C0.167385 16.795 0.235303 16.8726 0.318947 16.9266C0.402592 16.9807 0.498689 17.009 0.596561 17.0084H8.40601L6.43247 26.4506C6.40561 26.5774 6.42085 26.7101 6.47561 26.8263C6.53038 26.9425 6.62129 27.0349 6.73291 27.088C6.84453 27.141 6.96997 27.1513 7.08794 27.1172C7.20591 27.0831 7.30913 27.0066 7.38007 26.9007L17.9677 11.1451C18.0243 11.0608 18.0578 10.9616 18.0647 10.8584C18.0716 10.7551 18.0516 10.6518 18.0069 10.5599Z" fill="white"/>
</svg>
