<svg width="26" height="26" viewBox="0 0 26 26" fill="none" xmlns="http://www.w3.org/2000/svg">
<path fill-rule="evenodd" clip-rule="evenodd" d="M12.5919 25.0207C19.4961 25.0207 25.0931 19.4214 25.0931 12.5142C25.0931 5.60713 19.4961 0.0078125 12.5919 0.0078125C5.68776 0.0078125 0.0908203 5.60713 0.0908203 12.5142C0.0908203 19.4214 5.68776 25.0207 12.5919 25.0207ZM8.0692 14.8994C8.0692 17.3425 9.97471 19.0793 12.592 19.0793C15.2093 19.0793 17.1148 17.3425 17.1148 14.8994C17.1148 14.3379 16.9151 13.5346 16.5051 12.5701C16.1052 11.6293 15.5485 10.6355 14.9406 9.72605C14.331 8.81393 13.6954 8.02471 13.1544 7.48077C12.9293 7.2544 12.7397 7.08997 12.592 6.98036C12.4443 7.08997 12.2547 7.2544 12.0296 7.48077C11.4886 8.02471 10.853 8.81393 10.2434 9.72605C9.63548 10.6355 9.07881 11.6293 8.67886 12.5701C8.26887 13.5346 8.0692 14.3379 8.0692 14.8994ZM12.8035 6.84616C12.8047 6.84566 12.8053 6.84535 12.8053 6.84529C12.8053 6.84517 12.8029 6.84607 12.7979 6.84836C12.8004 6.84744 12.8023 6.84669 12.8035 6.84616ZM12.3814 6.84657C12.3826 6.84705 12.3841 6.84765 12.3861 6.84836C12.3811 6.84607 12.3787 6.84517 12.3787 6.84529C12.3787 6.84537 12.3796 6.84582 12.3814 6.84657ZM12.592 20.4269C9.35017 20.4269 6.72215 18.2009 6.72215 14.8994C6.72215 11.5979 11.1694 5.53069 12.592 5.53069C14.0146 5.53069 18.4618 11.5979 18.4618 14.8994C18.4618 18.2009 15.8338 20.4269 12.592 20.4269ZM15.4483 14.6381C15.4483 16.2163 14.1695 17.4956 12.592 17.4956C11.0144 17.4956 9.73558 16.2163 9.73558 14.6381C9.73558 13.0599 11.0144 11.7805 12.592 11.7805C14.1695 11.7805 15.4483 13.0599 15.4483 14.6381Z" fill="white"/>
</svg>
